# File created by Blade
# Date/Time:  Wed Apr 08 14:47:20 2015
# Frame Rate: 120.000 fps
#------------------------------------------------------
:FULLY-SPECIFIED
:DEGREES
2672
root 7.831594 34.572610 3.842820 59.281657 0.005398 -38.587429
Spine -16.477130 7.090758 11.313691
Head -33.498019 4.840476 36.804366
LeftShoulder -16.312288 40.962221 15.067739
LeftArm 55.187102 -5.132912 -75.759520
LeftForeArm -2.715920 0.000000 129.854335
LeftHand 9.998724 -0.000000 -1.146372
LeftHandThumb1 -26.253704 0.000000 33.147579
RightShoulder -0.151909 1.580820 -12.689344
RightArm 25.904542 -27.693549 61.033161
RightForeArm 10.308932 0.000000 123.407121
RightHand 11.529608 -0.000000 -0.076752
RightHandThumb1 -24.326973 -0.000000 -32.862282
LeftUpLeg -59.850625 27.564761 31.988129
LeftLeg 15.292236 -0.000000 -0.000000
LeftFoot -2.256085 4.945068 -25.044164
LeftToeBase -5.602068 -0.000000 0.000000
RightUpLeg 12.154421 -15.683544 -26.234295
RightLeg 79.615462 -0.000000 -0.000000
RightFoot -5.708633 -22.526680 1.217572
RightToeBase 0.488819 -0.000000 -0.000000
2673
root 7.847884 34.504299 3.842446 58.977162 -0.885803 -38.628993
Spine -16.640428 7.393880 10.849366
Head -32.495899 4.871812 36.638832
LeftShoulder -15.543475 40.349966 15.764344
LeftArm 56.312068 -4.152959 -75.099777
LeftForeArm -2.717458 -0.000000 129.353167
LeftHand 9.942568 -0.000000 -1.396133
LeftHandThumb1 -26.253704 0.000000 33.147579
RightShoulder -0.285431 1.294177 -12.740114
RightArm 25.830926 -27.644259 60.910069
RightForeArm 10.343658 -0.000000 123.100798
RightHand 11.751380 -0.000000 -0.064035
RightHandThumb1 -24.326973 -0.000000 -32.862282
LeftUpLeg -58.641947 26.634550 33.005993
LeftLeg 15.736338 -0.000000 -0.000000
LeftFoot -3.830358 5.973732 -24.531585
LeftToeBase -5.559115 -0.000000 0.000000
RightUpLeg 11.201523 -15.281783 -26.363495
RightLeg 83.756579 -0.000000 -0.000000
RightFoot -6.006634 -22.094826 1.098899
RightToeBase 0.674858 -0.000000 -0.000000
2674
root 7.867419 34.433140 3.846107 58.768169 -1.977648 -38.760409
Spine -16.880901 7.755600 10.285433
Head -31.441911 4.997204 36.484449
LeftShoulder -14.931206 39.864119 16.501730
LeftArm 57.261936 -3.164041 -74.759014
LeftForeArm -2.608452 0.000000 128.953832
LeftHand 9.772928 -0.000000 -1.601080
LeftHandThumb1 -26.253704 0.000000 33.147579
RightShoulder -0.384548 0.996875 -12.741694
RightArm 25.831553 -27.571933 60.877103
RightForeArm 10.335818 -0.000000 122.788017
RightHand 11.699066 0.000000 -0.249109
RightHandThumb1 -24.326973 -0.000000 -32.862282
LeftUpLeg -57.185127 25.644783 34.023579
LeftLeg 15.826788 -0.000000 -0.000000
LeftFoot -5.548918 7.596571 -23.874353
LeftToeBase -5.495576 -0.000000 0.000000
RightUpLeg 10.055295 -14.745918 -26.557661
RightLeg 87.887300 -0.000000 -0.000000
RightFoot -6.233341 -22.010674 1.024264
RightToeBase 1.198756 -0.000000 -0.000000
2675
root 7.888988 34.366345 3.846949 58.681871 -3.078653 -38.980761
Spine -17.205861 8.176799 9.809242
Head -30.421675 5.068260 36.300060
LeftShoulder -14.404557 39.468189 17.233108
LeftArm 58.090672 -2.172578 -74.622521
LeftForeArm -2.194105 -0.000000 128.648139
LeftHand 9.739716 -0.000000 -1.329081
LeftHandThumb1 -26.253704 0.000000 33.147579
RightShoulder -0.515048 0.899194 -12.749655
RightArm 25.708384 -27.549968 60.973508
RightForeArm 10.404921 -0.000000 122.524522
RightHand 11.679678 0.000000 -0.048807
RightHandThumb1 -24.326973 -0.000000 -32.862282
LeftUpLeg -55.564392 24.490612 35.320439
LeftLeg 15.613905 -0.000000 -0.000000
LeftFoot -7.249424 9.551270 -23.877459
LeftToeBase -5.400909 -0.000000 0.000000
RightUpLeg 8.729658 -14.100799 -26.586724
RightLeg 91.971625 -0.000000 -0.000000
RightFoot -6.358752 -22.027725 1.030279
RightToeBase 1.895563 -0.000000 -0.000000
2676
root 7.906846 34.314854 3.847479 58.717330 -4.123918 -39.308873
Spine -17.617648 8.593335 9.462269
Head -29.420567 5.225190 36.118186
LeftShoulder -13.941191 39.132935 17.930605
LeftArm 58.759919 -1.284736 -74.681949
LeftForeArm -1.606164 -0.000000 128.500545
LeftHand 9.653676 -0.000000 -1.298553
LeftHandThumb1 -26.253704 0.000000 33.147579
RightShoulder -0.637893 0.813517 -12.702203
RightArm 25.674330 -27.587654 61.063034
RightForeArm 9.748465 -0.000000 122.354067
RightHand 11.352357 -0.000000 -0.570298
RightHandThumb1 -24.326973 -0.000000 -32.862282
LeftUpLeg -53.935202 23.317348 36.716533
LeftLeg 15.170453 -0.000000 -0.000000
LeftFoot -8.859384 11.980068 -23.682065
LeftToeBase -4.922454 -0.000000 0.000000
RightUpLeg 7.259016 -13.372227 -26.347566
RightLeg 95.928802 -0.000000 -0.000000
RightFoot -6.298272 -22.186817 0.837416
RightToeBase 0.639031 -0.000000 -0.000000
